<svg width="960" height="720" viewBox="0 0 960 720" fill="none" xmlns="http://www.w3.org/2000/svg">
  <defs>
    <linearGradient id="panelBg" x1="0" y1="0" x2="960" y2="720" gradientUnits="userSpaceOnUse">
      <stop offset="0" stop-color="#17314D"/>
      <stop offset="1" stop-color="#0F2238"/>
    </linearGradient>
    <linearGradient id="cardFill" x1="0" y1="0" x2="1" y2="1">
      <stop offset="0" stop-color="#F7F2EA" stop-opacity="0.96"/>
      <stop offset="1" stop-color="#E8EEF6" stop-opacity="0.92"/>
    </linearGradient>
    <linearGradient id="accentStroke" x1="168" y1="138" x2="764" y2="548" gradientUnits="userSpaceOnUse">
      <stop offset="0" stop-color="#D8252D"/>
      <stop offset="1" stop-color="#E0BC62"/>
    </linearGradient>
    <filter id="softShadow" x="84" y="82" width="796" height="572" filterUnits="userSpaceOnUse" color-interpolation-filters="sRGB">
      <feFlood flood-opacity="0" result="BackgroundImageFix"/>
      <feColorMatrix in="SourceAlpha" type="matrix" values="0 0 0 0 0 0 0 0 0 0 0 0 0 0 0 0 0 0 127 0" result="hardAlpha"/>
      <feOffset dy="18"/>
      <feGaussianBlur stdDeviation="24"/>
      <feColorMatrix type="matrix" values="0 0 0 0 0.0352941 0 0 0 0 0.109804 0 0 0 0 0.196078 0 0 0 0.22 0"/>
      <feBlend mode="normal" in2="BackgroundImageFix" result="effect1_dropShadow_0_1"/>
      <feBlend mode="normal" in="SourceGraphic" in2="effect1_dropShadow_0_1" result="shape"/>
    </filter>
  </defs>
  <rect width="960" height="720" rx="34" fill="url(#panelBg)"/>
  <g opacity="0.09">
    <path d="M120 0V720" stroke="white"/>
    <path d="M240 0V720" stroke="white"/>
    <path d="M360 0V720" stroke="white"/>
    <path d="M480 0V720" stroke="white"/>
    <path d="M600 0V720" stroke="white"/>
    <path d="M720 0V720" stroke="white"/>
    <path d="M840 0V720" stroke="white"/>
    <path d="M0 120H960" stroke="white"/>
    <path d="M0 240H960" stroke="white"/>
    <path d="M0 360H960" stroke="white"/>
    <path d="M0 480H960" stroke="white"/>
    <path d="M0 600H960" stroke="white"/>
  </g>
  <circle cx="784" cy="138" r="112" fill="#D8252D" fill-opacity="0.12"/>
  <circle cx="192" cy="562" r="126" fill="#E0BC62" fill-opacity="0.12"/>
  <g filter="url(#softShadow)">
    <rect x="132" y="128" width="316" height="194" rx="28" fill="url(#cardFill)"/>
    <rect x="132" y="352" width="316" height="184" rx="28" fill="url(#cardFill)"/>
    <rect x="490" y="170" width="286" height="150" rx="28" fill="url(#cardFill)"/>
    <rect x="522" y="360" width="258" height="170" rx="28" fill="url(#cardFill)"/>
  </g>
  <rect x="168" y="168" width="110" height="12" rx="6" fill="#D8252D" fill-opacity="0.88"/>
  <rect x="168" y="198" width="228" height="18" rx="9" fill="#17314D"/>
  <rect x="168" y="232" width="188" height="12" rx="6" fill="#5A6D85"/>
  <rect x="168" y="264" width="154" height="12" rx="6" fill="#C3CBD5"/>
  <rect x="168" y="388" width="120" height="12" rx="6" fill="#E0BC62" fill-opacity="0.92"/>
  <rect x="168" y="420" width="226" height="16" rx="8" fill="#17314D"/>
  <rect x="168" y="454" width="204" height="12" rx="6" fill="#5A6D85"/>
  <rect x="168" y="486" width="168" height="12" rx="6" fill="#C3CBD5"/>
  <rect x="526" y="208" width="88" height="10" rx="5" fill="#D8252D"/>
  <rect x="526" y="236" width="204" height="14" rx="7" fill="#17314D"/>
  <rect x="526" y="266" width="168" height="11" rx="5.5" fill="#7A8CA2"/>
  <rect x="558" y="398" width="80" height="10" rx="5" fill="#E0BC62"/>
  <rect x="558" y="426" width="176" height="14" rx="7" fill="#17314D"/>
  <rect x="558" y="456" width="148" height="11" rx="5.5" fill="#7A8CA2"/>
  <path d="M448 224H490" stroke="url(#accentStroke)" stroke-width="5" stroke-linecap="round"/>
  <path d="M382 444H522" stroke="url(#accentStroke)" stroke-width="5" stroke-linecap="round"/>
  <path d="M294 322V352" stroke="url(#accentStroke)" stroke-width="5" stroke-linecap="round"/>
  <path d="M634 320V360" stroke="url(#accentStroke)" stroke-width="5" stroke-linecap="round"/>
  <path d="M490 246H612V360" stroke="url(#accentStroke)" stroke-width="4" stroke-linecap="round" stroke-linejoin="round" opacity="0.95"/>
  <circle cx="448" cy="224" r="10" fill="#D8252D"/>
  <circle cx="490" cy="224" r="10" fill="#E0BC62"/>
  <circle cx="382" cy="444" r="10" fill="#D8252D"/>
  <circle cx="522" cy="444" r="10" fill="#E0BC62"/>
  <circle cx="294" cy="322" r="10" fill="#D8252D"/>
  <circle cx="294" cy="352" r="10" fill="#E0BC62"/>
  <circle cx="634" cy="320" r="10" fill="#D8252D"/>
  <circle cx="634" cy="360" r="10" fill="#E0BC62"/>
  <rect x="664" y="106" width="132" height="44" rx="22" fill="white" fill-opacity="0.08" stroke="white" stroke-opacity="0.12"/>
  <rect x="687" y="121" width="18" height="18" rx="5" fill="#D8252D"/>
  <rect x="714" y="121" width="18" height="18" rx="5" fill="#E0BC62"/>
  <rect x="741" y="121" width="30" height="18" rx="9" fill="white" fill-opacity="0.24"/>
</svg>
